# xmcd
# 
# Track frame offsets:
#     150
#     15380
#     47250
#     64551
#     86360
#     109247
#     128571
#     142240
#     157818
#     178427
# 
# Disc length: 3085
# 
# Revision: 6
# Processed by: cddbd v1.5.2PL0 Copyright (c) Steve Scherf et al.
# Submitted via: fre:ac v1.0.17
# 
DISCID=790c0b0a
DTITLE=Various Artist - Diapason d' Or ~ N° 587  (Janvier 2011)
DYEAR=2010
DGENRE=Classique
TTITLE0=Schumann - Kreisleriana  (Radu Lupu, piano)
TTITLE1=Vivaldi - Ottone in villa  ''L'ombre, l'aure''  (Julia Lezhneva [Calo], Il Giardino Armonico, Giovanni Antonini)
TTITLE2=Schumann - Étude Op.56 n°4  (Olivier Vernet, orgue)
TTITLE3=Chopin - Études Op.10  N°9 and N°10  (Nelszon Goemer, piano)
TTITLE4=Debussy - {Orchestration de Colin Matthews}  Feux d'artifice  (Mark Elder, Hallé Orchestra)
TTITLE5=Clérambault - Orphée [extrait]  (Rachel Yakar, soprano ~ Musica Antiqua)
TTITLE6=Scarlatti - Sonate K.55  (Christian Zacharias, piano)
TTITLE7=Bach - Das alte Jahr vergangen ist.  (Jonathan Plowright, piano)
TTITLE8=Mozart - ''Ach, ich fühls''  (Elisabeth Grümmer, soprano)
TTITLE9=Wagner - La Walkyrie [fin]  (Hans Hotter [Wotan] ~ Orchestre  du Festival de Bayreuth)
EXTD=YEAR: 2010
EXTT0=
EXTT1=
EXTT2=
EXTT3=
EXTT4=
EXTT5=
EXTT6=
EXTT7=
EXTT8=
EXTT9=
PLAYORDER=
